<?xml version="1.0" standalone="no"?>
<!DOCTYPE svg PUBLIC "-//W3C//DTD SVG 20010904//EN"
 "http://www.w3.org/TR/2001/REC-SVG-20010904/DTD/svg10.dtd">
<svg xmlns="http://www.w3.org/2000/svg"
     width="3667.000000pt" height="1667.000000pt" viewBox="0 0 3667.000000 1667.000000"
     preserveAspectRatio="xMidYMid meet">

<g transform="translate(0.000000,1667.000000) scale(0.100000,-0.100000)"
fill="#000000" stroke="none">
<path d="M3196 12264 c-235 -312 -423 -571 -419 -574 5 -4 196 -93 425 -198
364 -168 420 -191 443 -182 46 18 810 372 818 380 5 4 -183 263 -417 575
l-425 567 -425 -568z"/>
<path d="M6686 11998 c-3 -29 -10 -147 -16 -263 -11 -211 -45 -679 -55 -767
l-6 -48 94 0 93 0 38 138 c92 332 170 477 287 537 101 52 323 74 747 75 l223
0 -4 -1647 c-3 -1783 0 -1694 -55 -1800 -51 -98 -184 -151 -427 -168 -146 -10
-135 -2 -135 -100 l0 -85 895 0 895 0 0 85 c0 98 11 90 -135 100 -290 20 -428
87 -471 229 -29 97 -33 345 -34 1864 l0 1522 248 0 c424 -1 624 -20 723 -70
124 -64 214 -229 296 -539 29 -114 39 -140 52 -137 9 2 51 7 95 11 l78 7 -6
61 c-23 235 -56 791 -56 945 l0 102 -68 0 -68 0 -53 -54 c-30 -30 -77 -65
-105 -78 l-51 -23 -1350 0 -1350 0 -53 24 c-48 22 -132 100 -132 122 0 5 -29
9 -64 9 l-65 0 -5 -52z"/>
<path d="M33458 11953 c-48 -14 -89 -30 -91 -37 -3 -6 -305 -767 -671 -1691
-367 -923 -687 -1721 -711 -1773 -122 -258 -217 -338 -455 -383 -63 -12 -121
-23 -127 -25 -9 -2 -13 -29 -13 -89 l0 -85 680 0 680 0 0 85 c0 97 15 86 -140
105 -231 29 -310 82 -310 208 0 82 80 347 257 850 l75 212 658 0 c617 0 658
-1 665 -17 4 -10 54 -148 112 -308 253 -698 274 -771 238 -833 -33 -55 -124
-91 -290 -115 l-90 -12 -3 -88 -3 -87 766 0 766 0 -3 87 -3 87 -95 12 c-123
16 -172 29 -243 67 -100 53 -172 149 -258 347 -22 51 -112 291 -200 534 -149
408 -872 2410 -1012 2803 -44 122 -66 173 -77 172 -8 0 -54 -12 -102 -26z
m140 -1598 l258 -740 -277 -3 c-153 -1 -406 -1 -562 0 l-285 3 95 255 c136
368 453 1218 471 1264 l16 40 13 -40 c7 -21 129 -372 271 -779z"/>
<path d="M11420 11802 l0 -88 145 -17 c238 -29 316 -64 361 -161 50 -110 49
-89 49 -1671 0 -1372 -1 -1485 -17 -1555 -42 -180 -133 -234 -428 -258 l-95
-7 -3 -87 -3 -88 821 0 820 0 0 85 c0 98 10 90 -125 100 -319 26 -400 93 -425
352 -6 61 -10 400 -10 781 l0 672 1055 0 1055 0 0 -617 c-1 -652 -9 -885 -34
-969 -43 -142 -132 -190 -388 -214 -186 -18 -168 -6 -168 -105 l0 -85 835 0
836 0 -3 88 -3 87 -95 7 c-183 15 -316 53 -361 104 -30 35 -58 100 -71 170
-10 55 -13 375 -13 1559 0 1400 1 1495 18 1567 40 172 133 223 465 254 l72 7
0 88 0 89 -815 0 -815 0 0 -88 0 -89 109 -12 c219 -23 323 -65 369 -148 51
-92 54 -131 59 -800 l5 -623 -1056 0 -1056 0 0 558 c0 584 8 738 40 825 44
118 148 167 413 193 l67 6 0 89 0 89 -805 0 -805 0 0 -88z"/>
<path d="M17110 11802 l0 -88 138 -16 c207 -26 280 -54 329 -127 71 -105 75
-222 70 -1850 -3 -1185 -5 -1333 -20 -1395 -31 -129 -86 -189 -207 -227 -61
-19 -260 -49 -325 -49 -63 0 -65 -3 -65 -101 l0 -89 1499 0 1499 0 46 188 c80
330 174 787 164 797 -11 11 -178 29 -187 19 -4 -5 -25 -53 -45 -106 -75 -195
-181 -378 -284 -489 -66 -72 -179 -131 -295 -154 -126 -25 -375 -38 -602 -31
-395 11 -508 45 -578 175 -59 107 -60 122 -64 874 l-4 688 463 -4 c376 -3 472
-6 513 -19 148 -45 200 -118 247 -349 l23 -109 92 0 93 0 0 600 0 600 -93 0
-93 0 -18 -88 c-37 -185 -80 -270 -160 -317 -85 -50 -153 -56 -629 -62 l-438
-5 3 763 c3 824 1 798 56 821 39 17 560 22 801 9 197 -11 328 -33 392 -67 114
-58 223 -260 290 -534 13 -52 24 -96 25 -98 3 -5 176 27 182 33 4 3 -4 175
-16 383 -13 207 -23 407 -22 445 l0 67 -1390 0 -1390 0 0 -88z"/>
<path d="M21420 11802 l0 -89 98 -12 c206 -25 312 -69 411 -171 78 -79 123
-152 148 -235 16 -55 17 -143 21 -1035 5 -1429 -14 -1865 -88 -2010 -57 -111
-187 -179 -375 -195 -124 -11 -115 -3 -115 -100 l0 -85 735 0 735 0 0 84 c0
94 -2 96 -73 96 -23 0 -82 7 -132 15 -223 36 -318 105 -365 264 -49 164 -62
554 -58 1740 l3 974 1319 -1622 1318 -1621 99 0 99 0 0 1528 c0 845 5 1607 10
1707 24 455 56 539 230 619 53 24 210 56 278 56 l32 0 0 90 0 90 -730 0 -730
0 0 -88 0 -88 120 -13 c281 -29 412 -102 460 -259 26 -82 47 -306 60 -627 11
-288 14 -2025 3 -2024 -5 0 -588 697 -1298 1550 l-1290 1549 -462 0 -463 0 0
-88z"/>
<path d="M27080 11801 l0 -89 78 -7 c213 -19 321 -53 376 -117 45 -52 65 -123
76 -264 13 -166 13 -2760 0 -2896 -26 -267 -107 -335 -445 -368 -183 -18 -165
-5 -165 -110 l0 -90 1500 0 1499 0 10 38 c61 231 215 941 207 950 -10 9 -188
24 -195 16 -4 -5 -18 -38 -31 -74 -39 -112 -128 -289 -195 -390 -74 -113 -161
-197 -239 -234 -136 -65 -407 -93 -773 -82 -334 10 -446 37 -528 128 -95 106
-104 197 -105 1016 l0 592 414 0 c243 0 447 -4 493 -11 196 -27 263 -103 317
-359 l22 -105 97 -3 97 -3 0 601 0 601 -96 -3 -97 -3 -22 -100 c-56 -245 -113
-312 -296 -346 -39 -7 -229 -13 -497 -16 l-433 -5 3 758 c3 820 2 798 57 825
35 18 544 24 797 10 284 -16 400 -46 478 -127 69 -70 180 -327 217 -501 7 -32
15 -62 19 -66 4 -4 48 0 98 9 l92 17 -5 51 c-10 95 -45 705 -45 776 l0 70
-1390 0 -1390 0 0 -89z"/>
<path d="M2250 10870 c-184 -247 -336 -453 -338 -458 -2 -6 382 -204 853 -442
l856 -432 517 261 c284 143 671 338 860 434 l342 173 -337 452 c-186 248 -343
451 -349 452 -11 0 -74 -28 -662 -301 -188 -87 -354 -159 -369 -159 -14 0
-218 88 -452 197 -234 108 -462 213 -506 233 l-81 37 -334 -447z"/>
<path d="M1422 9633 c-217 -290 -287 -391 -279 -399 7 -6 257 -152 557 -324
300 -172 852 -490 1228 -707 375 -216 687 -393 693 -393 24 0 2488 1425 2484
1437 -2 6 -133 183 -290 393 l-286 381 -887 -447 c-488 -246 -911 -460 -941
-476 -30 -15 -65 -28 -78 -28 -13 0 -445 213 -960 473 -515 259 -940 473 -944
475 -3 2 -137 -172 -297 -385z"/>
<path d="M1190 6635 l0 -85 17185 0 17185 0 0 85 0 85 -17185 0 -17185 0 0
-85z"/>
<path d="M32330 5979 c-221 -22 -398 -170 -473 -397 -50 -152 -44 -286 24
-498 17 -53 29 -97 27 -99 -2 -1 -53 -28 -113 -58 -233 -119 -388 -244 -484
-392 -184 -282 -133 -588 120 -712 111 -54 245 -66 432 -38 177 27 344 95 518
212 l81 53 71 -65 c89 -81 188 -148 270 -183 86 -36 229 -38 330 -3 139 47
258 156 323 296 48 103 49 110 18 129 -14 10 -27 16 -28 14 -1 -2 -17 -27 -35
-56 -73 -115 -169 -172 -291 -172 -119 0 -222 54 -363 189 l-82 79 70 74 c171
177 258 311 370 563 l24 55 -44 0 -45 0 -44 -87 c-24 -49 -67 -121 -95 -161
-54 -76 -218 -252 -282 -303 l-38 -30 -75 99 c-128 169 -254 372 -300 483
l-15 36 127 58 c265 122 392 220 454 351 31 65 33 76 33 179 0 98 -3 116 -26
166 -78 165 -234 239 -459 218z m162 -111 c101 -30 168 -137 168 -267 0 -176
-110 -307 -364 -432 -66 -32 -125 -59 -131 -59 -15 0 -62 135 -80 233 -31 163
-15 269 56 376 86 129 223 187 351 149z m-468 -1139 c83 -179 161 -320 256
-462 l79 -118 -70 -46 c-165 -106 -300 -148 -455 -140 -75 3 -103 10 -157 35
-114 53 -178 138 -198 261 -28 175 68 354 263 488 72 50 209 125 216 119 2 -2
31 -64 66 -137z"/>
<path d="M28406 5893 c-9 -63 -216 -2044 -216 -2060 0 -9 22 -13 78 -13 l78 0
94 900 c52 495 97 896 101 892 3 -4 170 -409 370 -899 l364 -893 35 0 35 1
530 859 c292 473 531 854 533 846 2 -11 -159 -1581 -172 -1673 l-5 -33 150 0
c137 0 149 1 149 18 0 20 206 1994 215 2060 l6 42 -149 0 -149 0 -83 -137
c-157 -259 -930 -1473 -954 -1500 -8 -9 -96 199 -341 812 l-330 825 -167 0
-166 0 -6 -47z"/>
<path d="M34200 5930 c0 -13 -208 -2003 -216 -2062 l-6 -48 705 0 704 0 7 53
c3 28 6 60 6 70 0 16 -33 17 -555 17 l-555 0 1 28 c0 15 21 227 47 472 l48
445 372 3 372 2 4 23 c3 12 7 41 9 65 l5 42 -375 0 -375 0 6 43 c3 23 19 175
36 337 16 162 32 314 36 338 l5 42 560 0 559 0 0 33 c0 17 3 49 6 70 l7 37
-707 0 c-458 0 -706 -3 -706 -10z"/>
</g>
</svg>
